HIERARCHY
ROOT RootJoint
{
    OFFSET   0.000000   0.000000   0.000000
    CHANNELS 6 Xposition Yposition Zposition Xrotation Yrotation Zrotation
    JOINT pelvis_lowerback
    {
        OFFSET   0.000000   0.093605   0.000000
        CHANNELS 3 Xrotation Yrotation Zrotation
        JOINT lowerback_torso
        {
            OFFSET   0.000000   0.100000   0.000000
            CHANNELS 3 Xrotation Yrotation Zrotation
            JOINT torso_head
            {
                OFFSET   0.000000   0.282350   0.000000
                CHANNELS 3 Xrotation Yrotation Zrotation
                End Site
                {
                    OFFSET   0.000000   0.192650   0.000000
                }
            }
            JOINT rTorso_Clavicle
            {
                OFFSET  -0.001000   0.157500   0.000000
                CHANNELS 3 Xrotation Yrotation Zrotation
                JOINT rShoulder
                {
                    OFFSET  -0.117647   0.000000   0.000000
                    CHANNELS 3 Xrotation Yrotation Zrotation
                    JOINT rElbow
                    {
                        OFFSET  -0.245000   0.000000   0.000000
                        CHANNELS 3 Xrotation Yrotation Zrotation
                        JOINT rWrist
                        {
                            OFFSET  -0.240000   0.000000   0.000000
                            CHANNELS 3 Xrotation Yrotation Zrotation
                            End Site
                            {
                                OFFSET  -0.116353  -0.002500   0.000000
                            }
                        }
                    }
                }
            }
            JOINT lTorso_Clavicle
            {
                OFFSET   0.001000   0.157500   0.000000
                CHANNELS 3 Xrotation Yrotation Zrotation
                JOINT lShoulder
                {
                    OFFSET   0.117647   0.000000   0.000000
                    CHANNELS 3 Xrotation Yrotation Zrotation
                    JOINT lElbow
                    {
                        OFFSET   0.245000   0.000000   0.000000
                        CHANNELS 3 Xrotation Yrotation Zrotation
                        JOINT lWrist
                        {
                            OFFSET   0.240000   0.000000   0.000000
                            CHANNELS 3 Xrotation Yrotation Zrotation
                            End Site
                            {
                                OFFSET   0.116353  -0.002500   0.000000
                            }
                        }
                    }
                }
            }
        }
    }
    JOINT rHip
    {
        OFFSET  -0.100000  -0.051395   0.000000
        CHANNELS 3 Xrotation Yrotation Zrotation
        JOINT rKnee
        {
            OFFSET   0.000000  -0.410000   0.000000
            CHANNELS 3 Xrotation Yrotation Zrotation
            JOINT rAnkle
            {
                OFFSET   0.000000  -0.390000   0.000000
                CHANNELS 3 Xrotation Yrotation Zrotation
                JOINT rToeJoint
                {
                    OFFSET   0.000000  -0.050000   0.130000
                    CHANNELS 3 Xrotation Yrotation Zrotation
                    End Site
                    {
                        OFFSET  -0.010000   0.002000   0.060000
                    }
                }
            }
        }
    }
    JOINT lHip
    {
        OFFSET   0.100000  -0.051395   0.000000
        CHANNELS 3 Xrotation Yrotation Zrotation
        JOINT lKnee
        {
            OFFSET   0.000000  -0.410000   0.000000
            CHANNELS 3 Xrotation Yrotation Zrotation
            JOINT lAnkle
            {
                OFFSET   0.000000  -0.390000   0.000000
                CHANNELS 3 Xrotation Yrotation Zrotation
                JOINT lToeJoint
                {
                    OFFSET   0.000000  -0.050000   0.130000
                    CHANNELS 3 Xrotation Yrotation Zrotation
                    End Site
                    {
                        OFFSET   0.010000   0.002000   0.060000
                    }
                }
            }
        }
    }
}
MOTION
Frames: 11
Frame Time:   0.008333
 -2.961917   0.794996   4.184876  35.218889 -11.430502  16.150148  71.451131  -0.461813   6.942924   0.460148  -1.514530  -1.309844   0.553996   3.008102 -18.173703  -6.081017  45.030987 -13.651517 -34.284998  24.753789  13.756929  -0.000819   7.449547  -0.003128  -4.364803   2.213828 -21.586390 -15.897006 -43.884584   8.225291 -17.466331 -26.029385  -3.937220   0.001703 -21.207509   0.004013   3.657728  -8.035637  23.729702 -80.097355 -11.829957 -17.053493  62.488347   0.000853   0.000751 -21.099516 -19.205647  -5.278839  -0.593455   0.000002  -0.000052 -76.350665  19.038909  11.347570  55.740533   0.000618   0.003096  -9.634825   5.342307   2.166405  -6.521391  -0.016528  -0.052466
 -2.960547   0.794521   4.184569  35.285222 -10.992171  15.677477  71.334270  -0.558538   6.975774   0.450761  -1.595801  -1.343825   0.582346   3.076734 -18.244792  -6.238182  44.983416 -13.552894 -34.474228  24.691565  13.931819  -0.000954   7.613433  -0.003078  -4.301715   2.245037 -21.683997 -15.871772 -43.888391   8.424533 -17.699253 -26.281864  -3.966628   0.002094 -20.871309   0.005631   3.661541  -8.068737  23.833385 -80.291136 -12.175316 -17.339789  62.508553   0.000714   0.000622 -21.113147 -19.273818  -5.099186  -0.520759  -0.000041   0.000021 -76.708799  19.255948  11.308762  55.774164   0.000668   0.002653  -9.785098   5.540634   2.312052  -6.265365  -0.012899  -0.039833
 -2.959300   0.794107   4.184208  35.367752 -10.552247  15.232608  71.225586  -0.659009   6.985233   0.434560  -1.688718  -1.388763   0.605878   3.143012 -18.316296  -6.392479  44.943610 -13.460636 -34.651952  24.630759  14.089053  -0.001034   7.765565  -0.003048  -4.249165   2.264044 -21.790722 -15.844051 -43.892500   8.625824 -17.919949 -26.528021  -3.991533   0.002302 -20.555128   0.006784   3.645963  -8.059585  23.935184 -80.490643 -12.509200 -17.626034  62.508649   0.000571   0.000497 -21.141077 -19.332888  -4.929500  -0.420649  -0.000097   0.000106 -77.064912  19.466563  11.261281  55.785292   0.000589   0.002178  -9.870901   5.689671   2.437937  -6.073974  -0.010038  -0.030401
 -2.958162   0.793713   4.183807  35.451063 -10.121108  14.795034  71.128712  -0.755592   6.980241   0.420262  -1.780108  -1.442819   0.629258   3.204356 -18.385982  -6.539408  44.910290 -13.376776 -34.817949  24.574258  14.232050  -0.001069   7.907457  -0.003019  -4.199512   2.279757 -21.899345 -15.816558 -43.896509   8.817709 -18.126982 -26.760312  -4.014529   0.002363 -20.260738   0.007541   3.629037  -8.046791  24.035064 -80.678572 -12.825045 -17.894457  62.505739   0.000453   0.000395 -21.171248 -19.385572  -4.769960  -0.318992  -0.000136   0.000194 -77.407533  19.664125  11.213744  55.785688   0.000473   0.001745  -9.940551   5.824792   2.555804  -5.891023  -0.007742  -0.022982
 -2.957126   0.793324   4.183371  35.530634  -9.696842  14.358124  71.042664  -0.845709   6.966485   0.409518  -1.866108  -1.501820   0.652228   3.261162 -18.452489  -6.678050  44.882290 -13.300332 -34.973130  24.522524  14.363392  -0.001071   8.040228  -0.002984  -4.151254   2.295790 -22.006773 -15.788978 -43.900463   8.997579 -18.320663 -26.977112  -4.037399   0.002320 -19.986147   0.007991   3.612817  -8.034907  24.130807 -80.852321 -13.122035 -18.144425  62.506263   0.000363   0.000316 -21.201105 -19.433494  -4.620464  -0.223310  -0.000154   0.000281 -77.735550  19.848074  11.166914  55.779135   0.000349   0.001364 -10.003107   5.950460   2.666723  -5.707539  -0.005887  -0.017086
 -2.956125   0.792955   4.182945  35.598738  -9.308738  13.953786  70.976465  -0.935824   6.926007   0.405994  -1.951952  -1.576331   0.674777   3.313342 -18.517364  -6.810066  44.858534 -13.231001 -35.118051  24.474379  14.482501  -0.001045   8.164045  -0.002928  -4.104731   2.310715 -22.114831 -15.760095 -43.904529   9.165637 -18.501814 -27.179812  -4.061174   0.002199 -19.730076   0.008177   3.597350  -8.024606  24.220694 -81.056446 -13.452164 -18.409350  62.537433   0.000320   0.000277 -21.165802 -19.555487  -4.468120  -0.250434  -0.000107   0.000225 -78.028275  20.026240  11.119992  55.771678   0.000248   0.001057 -10.064711   6.067866   2.770546  -5.534795  -0.004422  -0.012536
 -2.955173   0.792594   4.182520  35.660677  -8.942465  13.567481  70.920101  -1.018689   6.873783   0.407919  -2.031765  -1.658850   0.696829   3.361626 -18.579828  -6.934281  44.838323 -13.167462 -35.253553  24.430398  14.592194  -0.000997   8.279978  -0.002851  -4.059202   2.326593 -22.221724 -15.730155 -43.908680   9.319896 -18.670787 -27.367273  -4.086985   0.002031 -19.490791   0.008164   3.582205  -8.014425  24.303502 -81.248384 -13.767756 -18.663032  62.568682   0.000284   0.000244 -21.134018 -19.669065  -4.327880  -0.273953  -0.000072   0.000180 -78.300282  20.191654  11.072702  55.765490   0.000174   0.000819 -10.120641   6.177213   2.868424  -5.375329  -0.003273  -0.009047
 -2.954172   0.792080   4.182154  35.704964  -8.656329  13.097849  70.894365  -1.037807   6.852612   0.396126  -2.071414  -1.801372   0.681892   3.404505 -18.587945  -7.114134  44.816934 -13.063430 -35.379475  24.350366  14.736708  -0.001022   8.436593  -0.002890  -3.993856   2.363649 -22.305035 -15.688744 -43.914556   9.526601 -18.885145 -27.551998  -4.200417   0.002020 -19.121246   0.009050   3.564900  -8.045601  24.351969 -81.399055 -14.212781 -18.878012  62.600740   0.000246   0.000199 -21.104435 -19.706884  -4.154656  -0.305760  -0.000029   0.000144 -78.554669  20.250999  11.078337  55.805104   0.000291   0.000805 -10.383754   6.388203   3.001887  -4.972038  -0.002028  -0.004582
 -2.953152   0.791510   4.181799  35.747385  -8.391240  12.633157  70.870396  -1.056564   6.821253   0.378997  -2.104287  -1.939563   0.663464   3.445266 -18.592309  -7.282438  44.798115 -12.961821 -35.495955  24.271625  14.872105  -0.001028   8.582175  -0.002871  -3.930415   2.403852 -22.382532 -15.652182 -43.919715   9.720107 -19.085590 -27.715149  -4.305735   0.001994 -18.769052   0.009586   3.527710  -8.030122  24.381551 -81.548533 -14.652727 -19.084229  62.643800   0.000220   0.000161 -21.078982 -19.735666  -3.985421  -0.335485   0.000003   0.000115 -78.802347  20.294542  11.088650  55.857829   0.000429   0.000833 -10.677585   6.598885   3.129696  -4.541525  -0.000948  -0.000933
 -2.952116   0.790925   4.181452  35.786765  -8.138235  12.181961  70.849558  -1.075847   6.784245   0.359849  -2.135069  -2.072801   0.645339   3.483307 -18.596352  -7.441094  44.781356 -12.865539 -35.603914  24.195597  14.996494  -0.001017   8.717021  -0.002808  -3.871147   2.438363 -22.458664 -15.620417 -43.924168   9.901342 -19.273490 -27.863564  -4.402062   0.001944 -18.438541   0.009807   3.484990  -7.999736  24.409668 -81.693798 -15.071672 -19.284078  62.691607   0.000203   0.000132 -21.055154 -19.767263  -3.825705  -0.361633   0.000023   0.000092 -79.041300  20.334008  11.096810  55.916244   0.000553   0.000866 -10.967389   6.796579   3.249620  -4.126701  -0.000069   0.001762
 -2.951062   0.790346   4.181115  35.822688  -7.896328  11.745684  70.832033  -1.094705   6.743443   0.340700  -2.163969  -2.201443   0.628461   3.518674 -18.600577  -7.590656  44.766321 -12.775340 -35.704336  24.123503  15.110604  -0.000991   8.842342  -0.002715  -3.815454   2.468298 -22.534316 -15.591965 -43.928123  10.071461 -19.449596 -28.000065  -4.490575   0.001867 -18.129353   0.009780   3.441443  -7.965091  24.439426 -81.832426 -15.467916 -19.477437  62.739976   0.000192   0.000111 -21.030781 -19.802926  -3.675790  -0.384223   0.000034   0.000073 -79.269853  20.371471  11.101540  55.977143   0.000655   0.000891 -11.245521   6.980440   3.362214  -3.736481   0.000619   0.003649
